<!DOCTYPE svg PUBLIC "-//W3C//DTD SVG 20010904//EN" "http://www.w3.org/TR/2001/REC-SVG-20010904/DTD/svg10.dtd"[]><svg version="1.0" xmlns="http://www.w3.org/2000/svg" width="40" height="40" viewBox="0 0 256.000000 256.000000" preserveAspectRatio="xMidYMid meet"><g transform="translate(0.000000,256.000000) scale(0.100000,-0.100000)" fill="#000000" stroke="none"><path d="M1215 2544 c-45 -23 -1173 -1152 -1197 -1198 -24 -48 -20 -114 9 -155 44 -58 126 -84 190 -60 15 5 261 243 546 527 l517 517 518 -517 c284 -284 530 -522 545 -527 64 -24 146 2 190 60 29 40 33 107 9 155 -26 50 -1167 1189 -1205 1203 -40 15 -87 13 -122 -5z" /><path d="M992 1658 c-155 -156 -370 -366 -477 -468 l-194 -185 2 -451 2 -451 29 -37 c48 -63 64 -66 351 -66 l255 0 0 256 c0 286 3 302 68 352 l35 27 217 0 217 0 37 -29 c63 -48 66 -64 66 -351 l0 -256 269 3 c254 3 271 4 297 24 15 11 37 33 48 48 20 27 21 41 24 476 l3 448 -148 143 c-81 79 -297 291 -478 471 -182 180 -333 328 -335 328 -3 0 -132 -127 -288 -282z" /></g></svg>